<?xml version="1.0" encoding="UTF-8"?>
<svg xmlns="http://www.w3.org/2000/svg" xmlns:xlink="http://www.w3.org/1999/xlink" version="1.1" viewBox="0 0 300 300">
  <defs>
    <style>
      .cls-1 {
        fill: url(#radial-gradient-7);
      }

      .cls-2 {
        fill: url(#radial-gradient-6);
      }

      .cls-3 {
        fill: url(#radial-gradient-5);
      }

      .cls-4 {
        fill: url(#radial-gradient-4);
      }

      .cls-5 {
        fill: url(#radial-gradient-9);
      }

      .cls-6 {
        fill: url(#radial-gradient-8);
      }

      .cls-7 {
        fill: url(#radial-gradient-3);
      }

      .cls-8 {
        fill: url(#radial-gradient-2);
      }

      .cls-9 {
        fill: #7ca099;
      }

      .cls-10 {
        fill: url(#linear-gradient-8);
      }

      .cls-11 {
        fill: url(#linear-gradient-7);
      }

      .cls-12 {
        fill: url(#linear-gradient-5);
      }

      .cls-13 {
        fill: url(#linear-gradient-6);
      }

      .cls-14 {
        fill: url(#linear-gradient-9);
      }

      .cls-15 {
        fill: url(#linear-gradient-4);
      }

      .cls-16 {
        fill: url(#linear-gradient-3);
      }

      .cls-17 {
        fill: url(#linear-gradient-2);
      }

      .cls-18 {
        fill: url(#linear-gradient);
      }

      .cls-19 {
        fill: url(#radial-gradient);
        stroke: #fbf5a9;
        stroke-width: .6px;
      }

      .cls-20 {
        fill: url(#New_Gradient_Swatch_42);
      }

      .cls-21 {
        fill: url(#New_Gradient_Swatch_39);
      }

      .cls-22 {
        fill: url(#linear-gradient-10);
      }

      .cls-23 {
        fill: url(#linear-gradient-11);
      }

      .cls-24 {
        fill: url(#linear-gradient-12);
      }

      .cls-25 {
        fill: url(#linear-gradient-13);
      }

      .cls-26 {
        fill: url(#linear-gradient-19);
      }

      .cls-27 {
        fill: url(#linear-gradient-14);
      }

      .cls-28 {
        fill: url(#linear-gradient-21);
      }

      .cls-29 {
        fill: url(#linear-gradient-20);
      }

      .cls-30 {
        fill: url(#linear-gradient-22);
      }

      .cls-31 {
        fill: url(#linear-gradient-15);
      }

      .cls-32 {
        fill: url(#linear-gradient-16);
      }

      .cls-33 {
        fill: url(#linear-gradient-17);
      }

      .cls-34 {
        fill: url(#linear-gradient-18);
      }

      .cls-35 {
        opacity: 0;
      }
    </style>
    <linearGradient id="linear-gradient" x1="150.2" y1="74.5" x2="147.2" y2="257.9" gradientUnits="userSpaceOnUse">
      <stop offset="0" stop-color="#f0f0f0"/>
      <stop offset="1" stop-color="#b2b2b2"/>
    </linearGradient>
    <linearGradient id="linear-gradient-2" x1="145.9" y1="248.1" x2="154.8" y2="25.5" gradientUnits="userSpaceOnUse">
      <stop offset="0" stop-color="#f0f0f0"/>
      <stop offset="1" stop-color="#dedede"/>
    </linearGradient>
    <linearGradient id="linear-gradient-3" x1="135.5" y1="99" x2="183.1" y2="100.5" gradientUnits="userSpaceOnUse">
      <stop offset="0" stop-color="#fff"/>
      <stop offset="1" stop-color="#b2b2b2"/>
    </linearGradient>
    <linearGradient id="linear-gradient-4" x1="164.5" y1="98.5" x2="105.7" y2="100.7" xlink:href="#linear-gradient-3"/>
    <radialGradient id="radial-gradient" cx="266.1" cy="64.9" fx="266.1" fy="64.9" r="40.8" gradientTransform="translate(428.9) rotate(-180) scale(1 -1)" gradientUnits="userSpaceOnUse">
      <stop offset="0" stop-color="#e8973d"/>
      <stop offset=".4" stop-color="#f1ba77"/>
      <stop offset="1" stop-color="#feedca"/>
    </radialGradient>
    <radialGradient id="radial-gradient-2" cx="177" cy="67" fx="177" fy="67" r="27.1" gradientTransform="translate(-37 33.2) scale(1.1)" gradientUnits="userSpaceOnUse">
      <stop offset="0" stop-color="#b2b2b2"/>
      <stop offset="1" stop-color="#666"/>
    </radialGradient>
    <radialGradient id="radial-gradient-3" cx="177" fx="177" r="27.1" xlink:href="#radial-gradient-2"/>
    <linearGradient id="linear-gradient-5" x1="164.2" y1="55.8" x2="169.6" y2="55.8" gradientTransform="translate(-37 33.2) scale(1.1)" xlink:href="#linear-gradient-3"/>
    <linearGradient id="linear-gradient-6" x1="165.3" y1="92.1" x2="137" y2="92.1" xlink:href="#linear-gradient-3"/>
    <radialGradient id="radial-gradient-4" cx="183.4" cy="207.6" fx="183.4" fy="207.6" r="49.7" gradientTransform="translate(-39.1 33.2) scale(1 1.1)" xlink:href="#radial-gradient-2"/>
    <radialGradient id="radial-gradient-5" cx="106.8" cy="144.8" fx="106.8" fy="144.8" r="109.8" gradientUnits="userSpaceOnUse">
      <stop offset="0" stop-color="#fff"/>
      <stop offset=".3" stop-color="#f9f9f9"/>
      <stop offset=".8" stop-color="#eaeaea"/>
      <stop offset="1" stop-color="#dedede"/>
    </radialGradient>
    <linearGradient id="linear-gradient-7" x1="120.1" y1="89" x2="189.6" y2="89.8" gradientUnits="userSpaceOnUse">
      <stop offset="0" stop-color="#666"/>
      <stop offset=".3" stop-color="#b3b3b3"/>
      <stop offset="1" stop-color="#666"/>
    </linearGradient>
    <linearGradient id="linear-gradient-8" x1="119.6" y1="90.2" x2="180.9" y2="90.2" gradientUnits="userSpaceOnUse">
      <stop offset="0" stop-color="#8c8c8c"/>
      <stop offset=".1" stop-color="#b3b3b3"/>
      <stop offset=".3" stop-color="#eaeaea"/>
      <stop offset=".8" stop-color="#8c8c8c"/>
      <stop offset=".8" stop-color="#838383"/>
      <stop offset=".9" stop-color="#6d6d6d"/>
      <stop offset="1" stop-color="#666"/>
    </linearGradient>
    <linearGradient id="linear-gradient-9" x1="118.7" y1="81.6" x2="190.5" y2="81.6" gradientUnits="userSpaceOnUse">
      <stop offset="0" stop-color="#b9d5f0"/>
      <stop offset=".3" stop-color="#dfecf8"/>
      <stop offset=".7" stop-color="#b9d5f0"/>
      <stop offset=".8" stop-color="#9ab8c6"/>
      <stop offset=".9" stop-color="#81a0a3"/>
      <stop offset="1" stop-color="#71918d"/>
      <stop offset="1" stop-color="#6c8c86"/>
    </linearGradient>
    <linearGradient id="linear-gradient-10" x1="118" y1="78.3" x2="181.7" y2="78.3" gradientUnits="userSpaceOnUse">
      <stop offset="0" stop-color="#b9d5f0"/>
      <stop offset=".2" stop-color="#fff"/>
      <stop offset=".8" stop-color="#b9d5f0"/>
    </linearGradient>
    <linearGradient id="linear-gradient-11" x1="146" y1="43.3" x2="155.3" y2="72.3" gradientUnits="userSpaceOnUse">
      <stop offset="0" stop-color="#fff"/>
      <stop offset=".6" stop-color="#efa978"/>
      <stop offset="1" stop-color="#e67424"/>
    </linearGradient>
    <linearGradient id="linear-gradient-12" x1="134.8" y1="64.5" x2="144.5" y2="94.8" gradientUnits="userSpaceOnUse">
      <stop offset="0" stop-color="#fff"/>
      <stop offset=".5" stop-color="#f1c491"/>
      <stop offset="1" stop-color="#e8973d"/>
    </linearGradient>
    <linearGradient id="linear-gradient-13" x1="149" y1="267.2" x2="149" y2="27.5" gradientUnits="userSpaceOnUse">
      <stop offset="0" stop-color="#fff"/>
      <stop offset="1" stop-color="#eae0ba"/>
    </linearGradient>
    <linearGradient id="linear-gradient-14" x1="114.2" y1="137.6" x2="128.5" y2="182.6" gradientUnits="userSpaceOnUse">
      <stop offset="0" stop-color="#fff"/>
      <stop offset="1" stop-color="#eae0ba"/>
      <stop offset="1" stop-color="#dedede"/>
    </linearGradient>
    <linearGradient id="linear-gradient-15" x1="182.4" y1="192.3" x2="141.6" y2="191.2" xlink:href="#linear-gradient-14"/>
    <radialGradient id="radial-gradient-6" cx="205.2" cy="76.7" fx="205.2" fy="76.7" r="21.6" gradientTransform="translate(-37 33.2) scale(1.1)" xlink:href="#radial-gradient-5"/>
    <linearGradient id="linear-gradient-16" x1="150.5" y1="126.1" x2="164.8" y2="171.1" xlink:href="#linear-gradient-14"/>
    <linearGradient id="linear-gradient-17" x1="178.4" y1="117.2" x2="192.7" y2="162.1" xlink:href="#linear-gradient-14"/>
    <radialGradient id="radial-gradient-7" cx="216" cy="92.6" fx="216" fy="92.6" r="124.8" gradientTransform="translate(-37 33.2) scale(1.1)" xlink:href="#radial-gradient-5"/>
    <linearGradient id="linear-gradient-18" x1="180" y1="135" x2="157.5" y2="135" xlink:href="#linear-gradient-14"/>
    <radialGradient id="radial-gradient-8" cx="108.7" cy="113.2" fx="108.7" fy="113.2" r="40.3" xlink:href="#radial-gradient-5"/>
    <linearGradient id="linear-gradient-19" x1="115.6" y1="193.2" x2="200" y2="192.7" xlink:href="#linear-gradient-14"/>
    <linearGradient id="linear-gradient-20" x1="121.9" y1="135.2" x2="136.2" y2="180.2" xlink:href="#linear-gradient-14"/>
    <radialGradient id="radial-gradient-9" cy="144.8" fy="144.8" r="109.8" xlink:href="#radial-gradient-5"/>
    <linearGradient id="New_Gradient_Swatch_42" data-name="New Gradient Swatch 42" x1="195.2" y1="146.6" x2="121.2" y2="217.1" gradientUnits="userSpaceOnUse">
      <stop offset="0" stop-color="#666"/>
      <stop offset="1" stop-color="#000"/>
    </linearGradient>
    <linearGradient id="New_Gradient_Swatch_39" data-name="New Gradient Swatch 39" x1="155.8" y1="260.3" x2="155.8" y2="233" gradientUnits="userSpaceOnUse">
      <stop offset="0" stop-color="#fff"/>
      <stop offset=".2" stop-color="#eaeaeb"/>
      <stop offset=".8" stop-color="#b5b6b8"/>
      <stop offset="1" stop-color="#9a9c9e"/>
    </linearGradient>
    <linearGradient id="linear-gradient-21" x1="113.2" y1="249.3" x2="133.7" y2="249.3" xlink:href="#linear-gradient-2"/>
    <linearGradient id="linear-gradient-22" x1="175.5" y1="70.1" x2="148.1" y2="71" xlink:href="#linear-gradient-11"/>
  </defs>
  <!-- Generator: Adobe Illustrator 28.6.0, SVG Export Plug-In . SVG Version: 1.2.0 Build 709)  -->
  <g>
    <g id="Layer_2">
      <g>
        <g>
          <path class="cls-35" d="M247.5,256.5c0,2.6-43.7,4.7-97.5,4.7s-97.5-2.1-97.5-4.7,43.7-4.7,97.5-4.7c53.9,0,97.5,2.1,97.5,4.7Z"/>
          <g>
            <path class="cls-18" d="M189,124.4c0-16.1-11.2-19.5-18.5-22.4-7.3-2.9-5.5-10.9-5.5-10.9.5,0,.9-.1,1.3-.3h-34.5c.4.1.8.2,1.3.3,0,0,1.8,8-5.5,10.9-7.3,2.9-18.5,6.3-18.5,22.4s1.4,127.8,1.4,127.8c0,0-.4,4.8,8.1,4.8h61.1c8.5,0,8.1-4.8,8.1-4.8q1.4-112.8,1.4-127.8Z"/>
            <path class="cls-17" d="M185.9,126.9c0-15.3-10.4-18.6-17.1-21.3-6.7-2.7-5.1-10.4-5.1-10.4.5,0,.9-.1,1.2-.2h-31.9c.3.1.7.2,1.2.2,0,0,1.6,7.6-5.1,10.4-6.7,2.7-17.1,6-17.1,21.3s1.3,121.4,1.3,121.4c0,0-.4,4.5,7.5,4.5h56.5c7.8,0,7.5-4.5,7.5-4.5,0,0,1.3-106.1,1.3-121.4Z"/>
            <path class="cls-16" d="M137.3,95.7c0,5.4-3.1,7.2-3.1,7.2l7.8-1v-6.6h-4.9c.1.3.2.4.2.4Z"/>
            <path class="cls-15" d="M164.5,101.9s-2.6-.8-2.6-3.7v-2.8h-5.7c.2,0,.1,3.4,0,3.7-.4,1.2-2,2.6-4.8,2.8,0,0,8.6-.5,13.1.1Z"/>
          </g>
          <path class="cls-19" d="M124.2,77.2s2.6-10.4,13-13.1c10.9-2.8,5.8-10.9,5.8-10.9-1.1-3.5-1.1-7.9.9-11.1,2.9-4.5,10.6-4.2,13.1.6,1.3,2.6,1,5.7.5,8.5-.1.7-.2,1.4-.5,2,0,0-4.6,8.5,6.2,11.2,10.5,2.6,12.6,12.8,12.6,12.8h-51.6Z"/>
          <g>
            <path class="cls-8" d="M137.1,89h0s-2.8,0-2.8,0c-.3.1-2.9,1.2-2.9,2.3s-.4,3.2,1.9,4h3.8c-.5-1-1.5-3.8,0-6.3Z"/>
            <path class="cls-7" d="M167.1,91.3c0-1.1-2.5-2.2-2.9-2.3h-22.5c-.8.8-3,3.6.2,6.2h0c0,0,23.2,0,23.2,0,2.3-.8,1.9-3,1.9-4Z"/>
          </g>
          <path class="cls-12" d="M141.7,89h-4.7c-1.5,2.5-.4,5.3,0,6.3h4.9c-3.3-2.7-1-5.5-.2-6.3Z"/>
          <rect class="cls-13" x="156.1" y="89" width="5.9" height="6.3"/>
          <path class="cls-4" d="M115.3,250.5c-.7.6-1.1,1.2-1.1,1.9h9.4l-8.3-.4s0-.5,0-1.4Z"/>
          <path class="cls-3" d="M128.7,252.7s0-.1.1-.3h-5.3l5.1.3Z"/>
          <g>
            <g>
              <path class="cls-11" d="M175.7,96.2c.3-.3.3-.7.3-1.1v-12.2c0-1.2-1-2.2-2.2-2.2h-47.2c-1.2,0-2.2,1-2.2,2.2v12.2c0,.5.1,1,.4,1.3.3.4,3,1.6,3,1.6h44.9c0,0,2.8-1.6,3.1-1.9Z"/>
              <path class="cls-10" d="M176,93.8c0,1.3-.8,2.3-1.7,2.3h-48.3c-1,0-1.7-1-1.7-2.3v-7.3c0-1.3.8-2.3,1.7-2.3h48.3c1,0,1.7,1,1.7,2.3v7.3Z"/>
            </g>
            <g>
              <path class="cls-9" d="M177.1,84.9c0,1-.8,1.8-1.8,1.8h-50.5c-1,0-1.8-.8-1.8-1.8v-5.6c0-1,.8-1.8,1.8-1.8h50.5c1,0,1.8.8,1.8,1.8v5.6Z"/>
              <path class="cls-14" d="M177.5,84.5c0,1-.8,1.8-1.9,1.8h-51.3c-1,0-1.9-.8-1.9-1.8v-5.7c0-1,.8-1.8,1.9-1.8h51.3c1,0,1.9.8,1.9,1.8v5.7Z"/>
              <path class="cls-22" d="M126.1,78.3c0,.5.4.9.9.9h42.9c.5,0,.9-.4.9-.9h0c0-.5-.4-.9-.9-.9h-42.9c-.5,0-.9.4-.9.9h0Z"/>
            </g>
          </g>
          <path class="cls-23" d="M150.1,40s-7.2,3.6-4.4,16.6l-2.2-5.6s-1.3-10.9,6.7-11Z"/>
          <path class="cls-24" d="M145.5,58.7c.8,4.4-6.2,6-8.9,7.1-4.7,1.8-9,5.6-10.5,10.6,5.2,0,10.3-.1,15.5-.2,0-1.6.1-3.2.4-4.7.4-2.2,1.8-3.8,2.8-5.7,1.1-2.2,1.1-4.6.7-7Z"/>
          <polygon class="cls-25" points="111.8 135 114.1 250.4 182.1 250.4 186.2 135 111.8 135"/>
          <path class="cls-27" d="M111.8,135c0,.3,1,.6,2.9.8,0-.5,0-1.1,0-1.6-1.8.2-2.9.5-2.9.8Z"/>
          <path class="cls-31" d="M182.2,248.7v-112.8c-1.1.1-2.4.2-3.8.3l3.8,112.4Z"/>
          <path class="cls-2" d="M182.2,130.3c0-24.1-19.5-24.1-19.5-24.1,15.4,3.3,15.5,22.7,15.5,22.7l.2,4.8c1.5.1,2.8.2,3.9.3v-3.8Z"/>
          <path class="cls-32" d="M149,132.9c-7.5,0-14.4.1-20.3.3-.1,1.2-.2,2.4-.3,3.5,5.9.2,12.9.3,20.5.3,12,0,22.6-.3,29.4-.8v-2.6c-6.9-.5-17.5-.8-29.4-.8Z"/>
          <path class="cls-33" d="M186.2,135c0-.3-1.5-.7-4-.9v1.9c2.5-.3,4-.6,4-.9Z"/>
          <path class="cls-1" d="M178.3,133.7v2.6c1.6-.1,2.8-.2,3.9-.3v-1.9c-1.1-.1-2.4-.2-3.9-.3Z"/>
          <path class="cls-34" d="M178.3,133.7v2.6c1.6-.1,2.8-.2,3.9-.3v-1.9c-1.1-.1-2.4-.2-3.9-.3Z"/>
          <path class="cls-6" d="M141.5,105.1s-26.9.3-26.9,18.6,0,5.6,0,10.5c2.9-.4,7.9-.7,14.1-.9,1-10.7,4-24.2,12.7-28.2Z"/>
          <path class="cls-26" d="M115.3,250.5c2.1-1.8,7.1-3.4,14-4.4,0-1.7,0-3.6.1-5.8,0-.4,0-.7,0-1.1.1-11.3,0-28-.2-44.2-.3-24.5-.8-47.6-.8-47.6,0,0-.3-4.6,0-10.8-6.1-.2-11-.6-13.8-.9.1,30.6.6,103.6.6,114.7Z"/>
          <path class="cls-29" d="M114.6,134.2c0,.5,0,1.1,0,1.6,2.9.4,7.7.7,13.8.9,0-1.1.2-2.3.3-3.5-6.3.2-11.2.6-14.1.9Z"/>
          <path class="cls-5" d="M114.6,134.2c0,.5,0,1.1,0,1.6,2.9.4,7.7.7,13.8.9,0-1.1.2-2.3.3-3.5-6.3.2-11.2.6-14.1.9Z"/>
          <path class="cls-20" d="M176,144.3c.6,0,1.1-.5,1.1-1.1s-.5-1.1-1.1-1.1h-4.5v-9.6c0-1.1,0-2.2,0-3.3,0-.7,0-1.5,0-2.2h4.7c.6,0,1.1-.5,1.1-1.1s-.5-1.1-1.1-1.1h-4.8c-.4-7.3-2.2-14.2-11.6-17.4-.6-.2-1.2.1-1.4.7-.2.6.1,1.2.7,1.4,8.1,2.8,9.7,8.6,10.1,15.3h-4.2c-.6,0-1.1.5-1.1,1.1s.5,1.1,1.1,1.1h4.3c0,.8,0,1.5,0,2.3,0,1.1,0,2.2,0,3.3,0,0,0,3.6,0,9.6h-4.4c-.6,0-1.1.5-1.1,1.1s.5,1.1,1.1,1.1h4.4v15.1h-4.4c-.6,0-1.1.5-1.1,1.1s.5,1.1,1.1,1.1h4.4v15.1h-4.4c-.6,0-1.1.5-1.1,1.1s.5,1.1,1.1,1.1h4.4v15.1h-4.4c-.6,0-1.1.5-1.1,1.1s.5,1.1,1.1,1.1h4.4v15.1h-4.4c-.6,0-1.1.5-1.1,1.1s.5,1.1,1.1,1.1h4.4v15.1h-4.4c-.6,0-1.1.5-1.1,1.1s.5,1.1,1.1,1.1h4.4v11.5c0,.6.5,1.1,1.1,1.1s1.1-.5,1.1-1.1v-11.5h4.5c.6,0,1.1-.5,1.1-1.1s-.5-1.1-1.1-1.1h-4.5v-15.1h4.5c.6,0,1.1-.5,1.1-1.1s-.5-1.1-1.1-1.1h-4.5v-15.1h4.5c.6,0,1.1-.5,1.1-1.1s-.5-1.1-1.1-1.1h-4.5v-15.1h4.5c.6,0,1.1-.5,1.1-1.1s-.5-1.1-1.1-1.1h-4.5v-15.1h4.5c.6,0,1.1-.5,1.1-1.1s-.5-1.1-1.1-1.1h-4.5v-15.1h4.5Z"/>
          <path class="cls-21" d="M148.5,244.8c-7.1,0-13.8.5-19.2,1.3,0,.2,0,.4,0,.7,0,2.6-.2,4.5-.3,5.4,0,.1,0,.2,0,.2h54c0-4.2-15.4-7.6-34.3-7.6Z"/>
          <path class="cls-28" d="M129.3,246.8c0-.2,0-.4,0-.7-6.9,1-11.9,2.6-14,4.4,0,.9,0,1.4,0,1.4l8.3.4h5.3c0,0,0-.1,0-.2.2-.8.3-2.7.3-5.4Z"/>
        </g>
        <path class="cls-30" d="M160.3,64.8s10.5,2.1,13.7,11.1h-8.1s.2-8.4-5.6-11.1Z"/>
      </g>
    </g>
  </g>
</svg>