<?xml version="1.0" encoding="UTF-8"?>
<svg xmlns="http://www.w3.org/2000/svg" xmlns:xlink="http://www.w3.org/1999/xlink" version="1.1" viewBox="0 0 300 300">
  <defs>
    <style>
      .cls-1 {
        fill: url(#radial-gradient-4);
      }

      .cls-2 {
        fill: url(#radial-gradient-3);
      }

      .cls-3 {
        fill: url(#radial-gradient-2);
      }

      .cls-4 {
        fill: url(#linear-gradient-5);
      }

      .cls-5 {
        fill: url(#linear-gradient-4);
      }

      .cls-6 {
        fill: url(#linear-gradient-3);
      }

      .cls-7 {
        fill: url(#linear-gradient-2);
      }

      .cls-8 {
        fill: url(#radial-gradient);
      }

      .cls-9 {
        fill: #dedede;
      }

      .cls-10 {
        fill: url(#White_Black_2);
      }

      .cls-11 {
        fill: url(#New_Gradient_Swatch_39);
      }

      .cls-12 {
        fill: #dfecf8;
      }

      .cls-13 {
        fill: url(#linear-gradient);
        stroke-width: 1.7px;
      }

      .cls-13, .cls-14, .cls-15 {
        stroke: #fff;
      }

      .cls-14 {
        fill: url(#New_Gradient_Swatch_39-6);
      }

      .cls-14, .cls-15 {
        stroke-width: 1.1px;
      }

      .cls-15 {
        fill: url(#New_Gradient_Swatch_39-9);
      }

      .cls-16 {
        opacity: 0;
      }

      .cls-17 {
        fill: url(#New_Gradient_Swatch_39-4);
      }

      .cls-18 {
        fill: url(#New_Gradient_Swatch_39-3);
      }

      .cls-19 {
        fill: url(#New_Gradient_Swatch_39-5);
      }

      .cls-20 {
        fill: url(#New_Gradient_Swatch_39-2);
      }

      .cls-21 {
        fill: url(#New_Gradient_Swatch_39-7);
      }

      .cls-22 {
        fill: url(#New_Gradient_Swatch_39-8);
      }

      .cls-23 {
        fill: url(#White_Black_2-2);
      }

      .cls-24 {
        fill: url(#New_Gradient_Swatch_45);
      }

      .cls-24, .cls-25 {
        stroke: #b2b2b2;
        stroke-width: .6px;
      }

      .cls-25 {
        fill: url(#New_Gradient_Swatch_45-2);
      }
    </style>
    <radialGradient id="radial-gradient" cx="161.5" cy="8" fx="161.5" fy="8" r="369.2" gradientTransform="translate(-18.7 -17.5) scale(1.1)" gradientUnits="userSpaceOnUse">
      <stop offset="0" stop-color="#b2b2b2"/>
      <stop offset=".4" stop-color="#fff"/>
      <stop offset=".6" stop-color="#eaeaeb"/>
      <stop offset=".9" stop-color="#b5b6b8"/>
      <stop offset="1" stop-color="#9a9c9e"/>
    </radialGradient>
    <linearGradient id="linear-gradient" x1="143.1" y1="46.8" x2="154.5" y2="236.7" gradientUnits="userSpaceOnUse">
      <stop offset="0" stop-color="#fff"/>
      <stop offset="1" stop-color="#666"/>
    </linearGradient>
    <linearGradient id="linear-gradient-2" x1="207.1" y1="212" x2="192.8" y2="155" gradientTransform="translate(475.7 -40.3) rotate(179.8) scale(1.2 -1.2) skewX(0)" gradientUnits="userSpaceOnUse">
      <stop offset="0" stop-color="#3f3f3f"/>
      <stop offset=".1" stop-color="#5a5a5a"/>
      <stop offset=".3" stop-color="#8f8f8f"/>
      <stop offset=".5" stop-color="#b9b9b9"/>
      <stop offset=".7" stop-color="#d7d7d7"/>
      <stop offset=".9" stop-color="#e9e9e9"/>
      <stop offset="1" stop-color="#f0f0f0"/>
    </linearGradient>
    <linearGradient id="White_Black_2" data-name="White, Black 2" x1="108.4" y1="160.4" x2="76" y2="107.7" gradientUnits="userSpaceOnUse">
      <stop offset="0" stop-color="#fff"/>
      <stop offset="1" stop-color="#000"/>
    </linearGradient>
    <linearGradient id="White_Black_2-2" data-name="White, Black 2" x1="216.4" y1="161.8" x2="183.3" y2="107.9" gradientTransform="translate(401.7) rotate(-180) scale(1 -1)" xlink:href="#White_Black_2"/>
    <linearGradient id="New_Gradient_Swatch_39" data-name="New Gradient Swatch 39" x1="121.8" y1="190.7" x2="113" y2="244" gradientUnits="userSpaceOnUse">
      <stop offset="0" stop-color="#fff"/>
      <stop offset=".2" stop-color="#eaeaeb"/>
      <stop offset=".8" stop-color="#b5b6b8"/>
      <stop offset="1" stop-color="#9a9c9e"/>
    </linearGradient>
    <linearGradient id="New_Gradient_Swatch_39-2" data-name="New Gradient Swatch 39" x1="193.9" y1="201.6" x2="195.3" y2="235.4" xlink:href="#New_Gradient_Swatch_39"/>
    <linearGradient id="New_Gradient_Swatch_39-3" data-name="New Gradient Swatch 39" x1="143.6" y1="189.9" x2="144" y2="253.8" xlink:href="#New_Gradient_Swatch_39"/>
    <linearGradient id="New_Gradient_Swatch_39-4" data-name="New Gradient Swatch 39" x1="180.4" y1="120.8" x2="215" y2="221.1" gradientTransform="translate(-48.1 175.7) rotate(-37.4)" xlink:href="#New_Gradient_Swatch_39"/>
    <linearGradient id="New_Gradient_Swatch_39-5" data-name="New Gradient Swatch 39" x1="53.5" y1="57.9" x2="154.2" y2="350.1" xlink:href="#New_Gradient_Swatch_39"/>
    <linearGradient id="New_Gradient_Swatch_39-6" data-name="New Gradient Swatch 39" x1="122.3" y1="112.7" x2="18.5" y2="99.8" xlink:href="#New_Gradient_Swatch_39"/>
    <linearGradient id="New_Gradient_Swatch_39-7" data-name="New Gradient Swatch 39" x1="19.2" y1="100.9" x2="376.5" y2="120.6" xlink:href="#New_Gradient_Swatch_39"/>
    <linearGradient id="New_Gradient_Swatch_39-8" data-name="New Gradient Swatch 39" x1="189.7" y1="102.6" x2="477" y2="109.5" xlink:href="#New_Gradient_Swatch_39"/>
    <linearGradient id="New_Gradient_Swatch_39-9" data-name="New Gradient Swatch 39" x1="169.6" y1="107.1" x2="292.7" y2="104" xlink:href="#New_Gradient_Swatch_39"/>
    <linearGradient id="linear-gradient-3" x1="98.4" y1="214.8" x2="77.4" y2="157.9" gradientTransform="translate(-40.2 -40.3) rotate(.2) scale(1.2) skewX(0)" gradientUnits="userSpaceOnUse">
      <stop offset="0" stop-color="#3f3f3f"/>
      <stop offset="0" stop-color="#484848"/>
      <stop offset=".3" stop-color="#7d7d7d"/>
      <stop offset=".5" stop-color="#a7a7a7"/>
      <stop offset=".7" stop-color="#c5c5c5"/>
      <stop offset=".9" stop-color="#d7d7d7"/>
      <stop offset="1" stop-color="#dedede"/>
    </linearGradient>
    <radialGradient id="New_Gradient_Swatch_45" data-name="New Gradient Swatch 45" cx="157.5" cy="85.4" fx="157.5" fy="85.4" r="32.1" gradientTransform="translate(-18.7 -17.5) scale(1.1)" gradientUnits="userSpaceOnUse">
      <stop offset="0" stop-color="#fff"/>
      <stop offset="1" stop-color="#8b8b8b"/>
    </radialGradient>
    <radialGradient id="New_Gradient_Swatch_45-2" data-name="New Gradient Swatch 45" cx="186.8" cy="89.9" fx="186.8" fy="89.9" r="44.9" xlink:href="#New_Gradient_Swatch_45"/>
    <linearGradient id="linear-gradient-4" x1="117" y1="176" x2="111.2" y2="94" gradientUnits="userSpaceOnUse">
      <stop offset="0" stop-color="#fff"/>
      <stop offset=".2" stop-color="#eaeaea"/>
      <stop offset=".5" stop-color="#b5b5b5"/>
      <stop offset="1" stop-color="#666"/>
    </linearGradient>
    <linearGradient id="linear-gradient-5" x1="120.5" y1="137.3" x2="122.6" y2="115.3" xlink:href="#linear-gradient-4"/>
    <radialGradient id="radial-gradient-2" cx="128.1" cy="97.9" fx="128.1" fy="97.9" r="44.7" gradientTransform="translate(-18.7 -17.5) scale(1.1)" gradientUnits="userSpaceOnUse">
      <stop offset="0" stop-color="#dfecf8"/>
      <stop offset=".3" stop-color="#b9d5f0"/>
      <stop offset=".7" stop-color="#73a4d1"/>
      <stop offset="1" stop-color="#567a9c"/>
    </radialGradient>
    <radialGradient id="radial-gradient-3" cx="128" cy="103.9" fx="128" fy="103.9" r="35.8" gradientTransform="translate(-18.7 -17.5) scale(1.1)" gradientUnits="userSpaceOnUse">
      <stop offset="0" stop-color="#fff"/>
      <stop offset="1" stop-color="#73a4d1"/>
    </radialGradient>
    <radialGradient id="radial-gradient-4" cx="133.6" cy="108.5" fx="133.6" fy="108.5" r="46" xlink:href="#radial-gradient-3"/>
  </defs>
  <!-- Generator: Adobe Illustrator 28.6.0, SVG Export Plug-In . SVG Version: 1.2.0 Build 709)  -->
  <g>
    <g id="Layer_1">
      <g>
        <path class="cls-16" d="M278,235.3c0,4.4-57.3,7.9-128,7.7-70.7-.2-128-4-128-8.4,0-4.4,57.3-7.9,128-7.7,70.7.2,128,4,128,8.4Z"/>
        <g>
          <path class="cls-12" d="M59.2,114.3c0,0,0,0,0-.1v-.3s0,.4,0,.4Z"/>
          <path class="cls-12" d="M240,190.9h0c0-.1,0-.2,0-.3v.3Z"/>
          <path class="cls-12" d="M193.6,63.7c-.2,0-.5-.2-.7-.2-.3,0-.5,0-.8,0l1.5.2Z"/>
          <path class="cls-12" d="M243.8,114.3v-.3s0,.2,0,.2c0,0,0,0,0,0Z"/>
          <path class="cls-8" d="M192.1,73.2h-.8l-.7-.3c-38.5-13.2-87.6,0-88.1,0l-.6.2h-.6c-23.7,0-43.1,19-43.2,42.3l7.2,78.2v.2s0,.2,0,.2c0,23.4,19.4,42.4,43.2,42.4h78.8c23.8,0,43.2-19,43.2-42.4h0c0-.1,0-.3,0-.3l4.8-78.3c0-23.4-19.4-42.4-43.2-42.4Z"/>
          <path class="cls-13" d="M193.1,63.6c.2,0,.5.1.7.2l-1.5-.2c.3,0,.5,0,.8,0-39.2-12.5-86.3-1.5-92.1,0,.2,0,.4,0,.7,0l-1.2.2c0,0,.3,0,.6-.1-28.7.3-52,22.4-52,49.4v.4s7.2,74.1,7.2,74.1c0-.1,0-.2,0-.3v.4s0-.1,0-.1c.2,27.1,23.7,49.1,52.6,49.1h78.7c28.9,0,52.5-22,52.6-49.2h0s0-.3,0-.3c0,0,0,.2,0,.3l4.8-74.2h0v-.3c0-27-23.2-49-51.9-49.4ZM235.2,114.3s0,0,0,0l-4.8,76.1h0v.3c0,22.7-19.4,41.2-43.2,41.2h-78.8c-23.8,0-43.2-18.5-43.2-41.2v-.5s-7.2-76-7.2-76c0,0,0,0,0,.1v-.4s0,.3,0,.3c0-22.7,19.4-41.1,43.2-41.1h.6l.6-.2c.5-.1,49.6-12.9,88.1,0l.7.2h.8c23.8,0,43.1,18.5,43.2,41.2v-.2s0,.3,0,.3Z"/>
          <g>
            <path class="cls-7" d="M220.5,222.8l.6.8.9-.5c.7-.4,16.2-9.2,18.5-33h0c0-.1-5.8-39.4-5.8-39.4l-2.2-.2c-.8,2.5-20.6,60.4-11.9,72.3Z"/>
            <path class="cls-9" d="M231.4,150.2c0,.2-5.2,15.2-9.3,31.5-2.4,9.6-3.9,17.8-4.6,24.3-.9,8.7-.2,14.4,2.1,17.5l1.2,1.6,1.7-.9c.2,0,4.3-2.4,8.7-7.8,4-4.9,9.1-13.4,10.3-26.1v-.3s0-.3,0-.3l-5.8-39.1-4.3-.4h0ZM219.3,212.7c0-20.6,14.1-61.7,14.1-61.7l5.8,39.1h0c-2.3,23.6-17.9,32.2-17.9,32.2-1.4-1.9-2-5.3-2-9.5h0Z"/>
          </g>
          <path class="cls-10" d="M123.9,110.2s-6.2,31.6-67.9,40.4c0,0,54.1,13.6,67.9-40.4Z"/>
          <path class="cls-23" d="M171.1,112s4.3,29.8,66,38.6c0,0-52.2,15.4-66-38.6Z"/>
          <path class="cls-11" d="M88.1,213.4s32.4-5.4,37.2-2.4c4.8,3,21-6,26.4-7.8,0,0-17.4,19.8-26.4,18-9-1.8-11.4-7.2-17.4-3.6-6,3.6-16.8,7.2-23.4,5.4,0,0,3.6-7.2,3.6-9.6Z"/>
          <path class="cls-20" d="M216.8,213.3s-12.6,3.6-22.8,3.6-6.6,6.6-22.2,4.2c0,0,16.8,5.4,18,3,1.2-2.4,26.4-.6,27.6-3.6,0,0,0-5.4-.6-7.2Z"/>
          <path class="cls-18" d="M112.1,230s30.5-11.4,36.4-8.4c6,3,27,4.2,27,4.2,0,0-19.2,5.4-32.4,1.2-4.7-1.5-31.1,3-31.1,3Z"/>
          <path class="cls-17" d="M222.4,154.3s-7.8,41.4-13.5,45.8c-5.7,4.4-29,13.1-29,13.1,0,0,19.9-21.9,21.2-25.1s21.3-33.8,21.3-33.8Z"/>
          <path class="cls-19" d="M84.9,162.9s16.2,38.4,20.4,39c4.2.6,6.6,1.8,12.6,2.4,0,0-22.2,4.2-26.4,1.2-4.2-3-11.4-35.4-6.6-42.6Z"/>
          <g>
            <path class="cls-14" d="M75.1,57c-1.5,0-2.8.2-4,.5,0,0-25.1,19.4-25,59.5,0,7.7,1,16.2,3.2,25.4.2.8.4,1.7.6,2.5.8,3,1.7,6,2.8,9.2,0,0-.1-.4-.1-1,0-1.1.5-2.7,3.2-2.7s.8,0,1.2,0c.2,0,.5,0,.9,0,.9,0,2.1-.1,3.6-.3,0,0,0,0,0,0,16-2.2,63.3-16.1,63.3-45.5s-33.6-47.8-49.7-47.8ZM91,131.1c-13.2,6.3-36,7.7-40.8,8.1-2.4-9.9-3.4-19.3-3-28.3.5-9.4,2.5-18.3,6.2-26.5,4.5-10.2,10.5-16.8,13.4-19.6,5.8,0,24.7,5.4,33.4,12.1,6.9,5.4,15.1,14.6,15.1,27.8s-13.2,21.1-24.2,26.4Z"/>
            <path class="cls-21" d="M100.1,77c-8.7-6.8-25.9-10.9-31.7-11-2.9,2.8-8.8,9.3-13.4,19.6-3.6,8.1-5.7,17.1-6.2,26.5-.4,9,.6,18.4,3,28.3,4.8-.4,25.9-2.9,39.1-9.3,11-5.3,24.2-14.2,24.2-26.4s-8.2-22.4-15.1-27.8Z"/>
          </g>
          <g>
            <path class="cls-22" d="M195.2,77c-6.9,5.4-15.1,14.6-15.1,27.8s13.2,21.1,24.2,26.4c13.2,6.3,36,9.4,40.8,9.8,2.4-9.9,3.4-19.3,3-28.3-.5-9.4-2.5-18.3-6.2-26.5-4.5-10.2-10.5-16.8-13.4-19.6-5.8,0-24.7,3.6-33.4,10.4Z"/>
            <path class="cls-15" d="M224.2,57.4c-1.2-.3-2.5-.5-4-.5-16.1,0-49.6,17.2-49.6,47.8s47.3,43.3,63.3,45.5c0,0,0,0,0,0,1.5.2,2.7.3,3.6.3s.7,0,.9,0c.5,0,.9,0,1.2,0,2.7,0,3.2,1.6,3.2,2.7,0,.5-.1,1-.1,1,1.1-3.1,2-6.2,2.8-9.2.2-.9.4-1.7.6-2.5,2.2-9.2,3.2-17.7,3.2-25.4,0-40.1-25-59.5-25-59.5ZM204.3,131.1c-11-5.3-24.2-14.2-24.2-26.4s8.2-22.4,15.1-27.8c8.7-6.8,26.4-10.3,32.2-10.4,2.9,2.8,10,8.8,14.5,19,3.6,8.1,5.7,17.1,6.2,26.5.4,9-1.7,19-4.2,28.9-4.8-.4-26.5-3.5-39.6-9.8Z"/>
          </g>
          <g>
            <path class="cls-6" d="M56.6,188.8h0c2.3,24,18.2,33.9,18.9,34.3l.9.5.6-.8c8.7-11.8-11.1-69.8-11.9-72.3l-1.4-4.2-7,42.4Z"/>
            <path class="cls-9" d="M66,150.2l-4.3.4-6.2,37.9v.3s0,.3,0,.3c1.2,12.7,6.4,21.5,10.5,26.7,4.5,5.6,8.7,8.2,8.9,8.3l1.7,1.1,1.2-1.6c2.3-3.1,3-8.9,2.1-17.5-.7-6.5-2.2-14.7-4.6-24.3-4.1-16.3-9.2-31.3-9.3-31.5h0ZM57.7,188.8l6.2-37.9s14.2,41.2,14.1,61.7c0,4.2-.6,7.6-2,9.5,0,0-16-9.8-18.3-33.3h0Z"/>
          </g>
          <path class="cls-24" d="M182.1,99.9c6.5,1.3,11.4,5.9,11.4,11.4s-6.7,11.7-15,11.7h-59c-8.3,0-15-5.3-15-11.7s6.7-11.7,15-11.7h50.8l.6-4h-51.5c-10.5,0-18.9,7-18.9,15.7s8.5,15.7,18.9,15.7h59c10.5,0,18.9-7,18.9-15.7s-.5-4.1-1.4-5.9l-13.9-5.4Z"/>
          <path class="cls-25" d="M193.8,111.3c0,5.2-4.2,9.4-9.4,9.4s-9.4-4.2-9.4-9.4,4.2-9.4,9.4-9.4,9.4,4.2,9.4,9.4ZM184.4,98.3c-7.2,0-13,5.8-13,13s5.8,13,13,13,13-5.8,13-13-5.8-13-13-13Z"/>
          <path class="cls-5" d="M123.9,111.8c-3.5-1.1-7.9,1.4-9.1,2.1-.4,1.8-1.6,3.5-3.5,4.1-2.9,1-6.1-.5-7.2-3.4-1-2.9.5-6.1,3.4-7.2,2.4-.9,4.9,0,6.4,2.1.7.8,2.3,2.2,4.8,1.8,3.5-.6,11.8-11.2,8.6-15.4-3.2-4.2-35.5-2.7-30.7,18.8,2.1,9.4,8.7,13.3,15.6,14.8l11.8-17.8Z"/>
          <path class="cls-4" d="M112.1,129.6c8.9,1.9,18.2-.4,18.2-.4,2-12.1-1.8-15.3-5.9-17.2-.2,0-.4-.2-.6-.2l-11.8,17.8Z"/>
          <g>
            <path class="cls-3" d="M96.9,113.3c4.8,21.5,33.8,14.4,33.8,14.4,2-12.1-1.8-15.3-5.9-17.2-3.6-1.6-8.5,1.1-9.7,1.9-.4,1.8-1.6,3.5-3.5,4.1-2.9,1-6.1-.5-7.2-3.4-1-2.9.5-6.1,3.4-7.2,2.4-.9,4.9,0,6.4,2.1.7.8,2.3,2.2,4.8,1.8,3.5-.6,11.8-11.2,8.6-15.4-3.2-4.2-35.5-2.7-30.7,18.8Z"/>
            <path class="cls-2" d="M114.1,107.5c.7.8,2.3,2.2,4.7,1.8,2.4-.4,6.4-4.8,8-8.8,1-2.4.9-4.3,0-5.6-2-2.6-12.9-2.5-20.6,1-7.4,3.4-10.6,9.3-9,16.5h0c0,.3.4.5.7.5.3,0,.5-.4.5-.7h0c-1.9-8.5,3.5-12.9,8.3-15.2,7.9-3.6,17.8-3.1,19.1-1.4.9,1.2.4,3.1-.1,4.5-1.5,3.8-5.3,7.8-7.1,8.1-1.8.3-3-.6-3.6-1.4h0c-.2-.3-3-1.4-3.3-1.2-.3.2,1.9.9,2.4,2h0Z"/>
            <path class="cls-1" d="M130.3,126.8c1.8-10.9-1.3-13.1-5.7-15.2-3.5-1.6-7.3.8-8.5,1.6h-.1c0,0-.2.2-.2.2,0,0,0,.3,0,.3-.3,1.5-2,3.3-3.6,3.9-2.4.9-6.6-.2-7.3-2.5h0c-.1-.3-1.1-3.2-1.4-3.1-.3.1.2,3.2.3,3.5h0c1.1,3,5.8,4.3,8.9,3.2,2-.7,4-2.9,4.4-4.7l-.3.4h.1c1.2-.8,4.5-2.9,7.4-1.6,3.5,1.6,6.8,3.1,5,13.9h0c0,.3.2.6.5.7s.6-.2.7-.5h0Z"/>
          </g>
        </g>
      </g>
    </g>
  </g>
</svg>