<?xml version="1.0" encoding="UTF-8"?>
<svg xmlns="http://www.w3.org/2000/svg" xmlns:xlink="http://www.w3.org/1999/xlink" version="1.1" viewBox="0 0 300 300">
  <defs>
    <style>
      .cls-1 {
        fill: url(#radial-gradient-7);
      }

      .cls-2 {
        fill: url(#radial-gradient-6);
      }

      .cls-3 {
        fill: url(#radial-gradient-5);
      }

      .cls-4 {
        fill: url(#radial-gradient-4);
      }

      .cls-5 {
        fill: url(#radial-gradient-9);
      }

      .cls-6 {
        fill: url(#radial-gradient-8);
      }

      .cls-7 {
        fill: url(#radial-gradient-3);
      }

      .cls-8 {
        fill: url(#radial-gradient-2);
      }

      .cls-9 {
        fill: url(#linear-gradient-8);
      }

      .cls-10 {
        fill: url(#linear-gradient-7);
      }

      .cls-11 {
        fill: url(#linear-gradient-5);
      }

      .cls-12 {
        fill: url(#linear-gradient-6);
      }

      .cls-13 {
        fill: url(#linear-gradient-9);
      }

      .cls-14 {
        fill: url(#linear-gradient-4);
      }

      .cls-15 {
        fill: url(#linear-gradient-3);
      }

      .cls-16 {
        fill: url(#linear-gradient-2);
      }

      .cls-17 {
        fill: url(#radial-gradient);
      }

      .cls-18 {
        fill: url(#linear-gradient);
      }

      .cls-19 {
        fill: url(#linear-gradient-10);
      }

      .cls-20 {
        fill: url(#linear-gradient-11);
      }

      .cls-21 {
        fill: url(#linear-gradient-12);
      }

      .cls-22 {
        fill: url(#linear-gradient-13);
      }

      .cls-23 {
        opacity: 0;
      }
    </style>
    <linearGradient id="linear-gradient" x1="150.9" y1="160" x2="150.9" y2="174.7" gradientUnits="userSpaceOnUse">
      <stop offset="0" stop-color="#eaeaea"/>
      <stop offset="1" stop-color="#8c8c8c"/>
    </linearGradient>
    <linearGradient id="linear-gradient-2" x1="152.9" y1="135.9" x2="152.9" y2="155" gradientUnits="userSpaceOnUse">
      <stop offset="0" stop-color="#73a4d1"/>
      <stop offset="1" stop-color="#567a9c"/>
    </linearGradient>
    <radialGradient id="radial-gradient" cx="-33.7" cy="-10.4" fx="-33.7" fy="-10.4" r="195.6" gradientTransform="translate(130.1 113.3) rotate(-90) scale(.6)" gradientUnits="userSpaceOnUse">
      <stop offset="0" stop-color="#edf7f5"/>
      <stop offset=".8" stop-color="#b9d5f0"/>
    </radialGradient>
    <radialGradient id="radial-gradient-2" cx="-74.7" cy="-10.4" fx="-74.7" fy="-10.4" r="195.6" gradientTransform="translate(130.1 113.3) rotate(-90) scale(.6)" gradientUnits="userSpaceOnUse">
      <stop offset="0" stop-color="#eaeaea"/>
      <stop offset="1" stop-color="#cfd1d1"/>
    </radialGradient>
    <radialGradient id="radial-gradient-3" cx="-169.2" cy="-15.2" fx="-169.2" fy="-15.2" r="195.6" gradientTransform="translate(132.5 96.8) rotate(-90) scale(.4 .6)" gradientUnits="userSpaceOnUse">
      <stop offset="0" stop-color="#6d8e94"/>
      <stop offset="1" stop-color="#495f63"/>
    </radialGradient>
    <linearGradient id="linear-gradient-3" x1="77.5" y1="88.1" x2="77.5" y2="184.1" gradientUnits="userSpaceOnUse">
      <stop offset="0" stop-color="#443914"/>
      <stop offset="0" stop-color="#695125"/>
      <stop offset="0" stop-color="#906a37"/>
      <stop offset=".1" stop-color="#ae7d45"/>
      <stop offset=".1" stop-color="#c38b4f"/>
      <stop offset=".1" stop-color="#d09455"/>
      <stop offset=".2" stop-color="#d59758"/>
      <stop offset=".8" stop-color="#5a3d1c"/>
      <stop offset="1" stop-color="#443914"/>
    </linearGradient>
    <linearGradient id="linear-gradient-4" x1="226" x2="226" xlink:href="#linear-gradient-3"/>
    <linearGradient id="linear-gradient-5" x1="207.4" x2="207.4" xlink:href="#linear-gradient-3"/>
    <linearGradient id="linear-gradient-6" x1="188.9" x2="188.9" xlink:href="#linear-gradient-3"/>
    <linearGradient id="linear-gradient-7" x1="170.3" x2="170.3" xlink:href="#linear-gradient-3"/>
    <linearGradient id="linear-gradient-8" x1="151.7" x2="151.7" xlink:href="#linear-gradient-3"/>
    <linearGradient id="linear-gradient-9" x1="133.2" x2="133.2" xlink:href="#linear-gradient-3"/>
    <linearGradient id="linear-gradient-10" x1="114.6" x2="114.6" xlink:href="#linear-gradient-3"/>
    <linearGradient id="linear-gradient-11" x1="96.1" x2="96.1" xlink:href="#linear-gradient-3"/>
    <linearGradient id="linear-gradient-12" x1="152.1" y1="18" x2="152.1" y2="266.6" gradientUnits="userSpaceOnUse">
      <stop offset=".1" stop-color="#8b5c29"/>
      <stop offset="1" stop-color="#5a3d1c"/>
    </linearGradient>
    <radialGradient id="radial-gradient-4" cx="47.1" cy="1.9" fx="47.1" fy="1.9" r="121.6" gradientTransform="translate(130.1 113.3) rotate(-90) scale(.6)" gradientUnits="userSpaceOnUse">
      <stop offset=".1" stop-color="#f2e9aa"/>
      <stop offset=".9" stop-color="#b19951"/>
    </radialGradient>
    <linearGradient id="linear-gradient-13" x1="151.4" y1="-31.7" x2="151.4" y2="216.8" xlink:href="#linear-gradient-12"/>
    <radialGradient id="radial-gradient-5" cx="-95.7" cy="2.5" fx="-95.7" fy="2.5" r="194.8" gradientTransform="translate(130.1 113.3) rotate(-90) scale(.6)" gradientUnits="userSpaceOnUse">
      <stop offset="0" stop-color="#b19951"/>
      <stop offset=".5" stop-color="#705e22"/>
      <stop offset=".9" stop-color="#443914"/>
    </radialGradient>
    <radialGradient id="radial-gradient-6" cx="310.6" cy="47.8" fx="310.6" fy="47.8" r="90.1" gradientTransform="translate(53.7 116.6) scale(.6)" gradientUnits="userSpaceOnUse">
      <stop offset="0" stop-color="#5a3d1c"/>
      <stop offset=".7" stop-color="#7b5124"/>
      <stop offset="1" stop-color="#8b5c29"/>
    </radialGradient>
    <radialGradient id="radial-gradient-7" cx="311.2" cy="-81.6" fx="311.2" fy="-81.6" r="113.8" gradientTransform="translate(53.7 116.6) scale(.6)" gradientUnits="userSpaceOnUse">
      <stop offset=".1" stop-color="#f2e9aa"/>
      <stop offset=".9" stop-color="#8b5c29"/>
    </radialGradient>
    <radialGradient id="radial-gradient-8" cx="9.4" fx="9.4" r="90.1" xlink:href="#radial-gradient-6"/>
    <radialGradient id="radial-gradient-9" cx="11.7" cy="-80.8" fx="11.7" fy="-80.8" r="118.9" xlink:href="#radial-gradient-7"/>
  </defs>
  <!-- Generator: Adobe Illustrator 28.6.0, SVG Export Plug-In . SVG Version: 1.2.0 Build 709)  -->
  <g>
    <g id="Layer_3">
      <g>
        <path class="cls-23" d="M300,225.1c0,3.8-67.2,6.9-150,6.9S0,228.9,0,225.1s67.2-6.9,150-6.9,150,3.1,150,6.9Z"/>
        <g>
          <g>
            <rect class="cls-18" x="58.7" y="160" width="184.4" height="19.2"/>
            <rect class="cls-16" x="60.6" y="135.9" width="184.4" height="25.1"/>
            <rect class="cls-17" x="64.6" y="137" width="175" height="1.7"/>
            <rect class="cls-8" x="64.6" y="162.2" width="175" height="1.7"/>
            <rect class="cls-7" x="62.7" y="159.7" width="178.5" height="1"/>
          </g>
          <g>
            <g>
              <rect class="cls-15" x="75" y="93.1" width="5" height="83.1"/>
              <rect class="cls-14" x="223.5" y="93.1" width="5" height="83.1"/>
              <rect class="cls-11" x="204.9" y="93.1" width="5" height="83.1"/>
              <rect class="cls-12" x="186.4" y="93.1" width="5" height="83.1"/>
              <rect class="cls-10" x="167.8" y="93.1" width="5" height="83.1"/>
              <rect class="cls-9" x="149.2" y="93.1" width="5" height="83.1"/>
              <rect class="cls-13" x="130.7" y="93.1" width="5" height="83.1"/>
              <rect class="cls-19" x="112.1" y="93.1" width="5" height="83.1"/>
              <rect class="cls-20" x="93.6" y="93.1" width="5" height="83.1"/>
            </g>
            <g>
              <g>
                <path class="cls-21" d="M243.4,87.4c2.6,0,4.6,2.1,4.6,4.6h0c0,2.6-2.1,4.6-4.6,4.6H60.7c-2.6,0-4.6-2.1-4.6-4.6h0c0-2.6,2.1-4.6,4.6-4.6h182.7Z"/>
                <rect class="cls-4" x="72.9" y="88.1" width="149.9" height="1.5"/>
              </g>
              <g>
                <path class="cls-22" d="M242.8,174c2.6,0,4.6,2.1,4.6,4.6h0c0,2.6-2.1,4.6-4.6,4.6H60.1c-2.6,0-4.6-2.1-4.6-4.6h0c0-2.6,2.1-4.6,4.6-4.6h182.7Z"/>
                <rect class="cls-3" x="76.4" y="174.9" width="149.9" height="1.5"/>
              </g>
            </g>
            <g>
              <g>
                <path class="cls-2" d="M248.7,220.8c0,2.6-2.1,3-4.6,3h0c-2.6,0-4.6-.5-4.6-3V72.6c0-2.6,2.1-4.6,4.6-4.6h0c2.6,0,4.6,2.1,4.6,4.6v148.2Z"/>
                <path class="cls-1" d="M246.2,139.8c0,1.1-.9,2.1-2.1,2.1h0c-1.1,0-2.1-.9-2.1-2.1v-66.5c0-1.1.9-2.1,2.1-2.1h0c1.1,0,2.1.9,2.1,2.1v66.5Z"/>
              </g>
              <g>
                <path class="cls-6" d="M64.1,220.8c0,2.6-2.1,3-4.6,3h0c-2.6,0-4.6-.5-4.6-3V72.6c0-2.6,2.1-4.6,4.6-4.6h0c2.6,0,4.6,2.1,4.6,4.6v148.2Z"/>
                <path class="cls-5" d="M61.6,140c0,1.1-.9,2.1-2.1,2.1h0c-1.1,0-2.1-.9-2.1-2.1v-66.5c0-1.1.9-2.1,2.1-2.1h0c1.1,0,2.1.9,2.1,2.1v66.5Z"/>
              </g>
            </g>
          </g>
        </g>
      </g>
    </g>
  </g>
</svg>